<?xml version="1.0" encoding="UTF-8"?>
<!DOCTYPE svg PUBLIC "-//W3C//DTD SVG 1.1//EN" "http://www.w3.org/Graphics/SVG/1.1/DTD/svg11.dtd">
<svg xmlns="http://www.w3.org/2000/svg" version="1.1" width="1024px" height="1024px" style="shape-rendering:geometricPrecision; text-rendering:geometricPrecision; image-rendering:optimizeQuality; fill-rule:evenodd; clip-rule:evenodd" xmlns:xlink="http://www.w3.org/1999/xlink">
<g><path style="opacity:1" fill="#fefefe" d="M 498.5,862.5 C 500.722,862.178 502.556,862.845 504,864.5C 504.483,863.552 504.649,862.552 504.5,861.5C 508.768,861.924 513.101,862.091 517.5,862C 516.167,862.333 514.833,862.667 513.5,863C 515.025,864.009 516.692,864.509 518.5,864.5C 518.5,863.167 518.5,861.833 518.5,860.5C 520.467,860.739 522.301,860.406 524,859.5C 525.018,861.564 526.351,861.898 528,860.5C 529.059,860.63 529.892,861.13 530.5,862C 526.304,862.064 522.304,863.398 518.5,866C 451.794,876.057 388.127,865.724 327.5,835C 314.667,826.749 301.667,818.749 288.5,811C 278.851,803.681 269.518,796.015 260.5,788C 259.552,787.517 258.552,787.351 257.5,787.5C 253.189,781.35 247.856,775.85 241.5,771C 216.122,745.21 195.122,716.71 178.5,685.5C 177.205,683.672 176.205,681.672 175.5,679.5C 174.914,679.709 174.414,680.043 174,680.5C 171.138,674.248 168.472,667.915 166,661.5C 164,658.167 162,654.833 160,651.5C 152.295,630.528 146.295,609.195 142,587.5C 141.5,585.667 140.333,584.5 138.5,584C 140.934,580.96 141.1,577.794 139,574.5C 138.667,575.5 138.333,576.5 138,577.5C 133.035,551.327 130.535,524.994 130.5,498.5C 131.589,490.688 132.589,482.855 133.5,475C 132.807,471.435 133.307,467.935 135,464.5C 135.686,454.42 137.019,444.42 139,434.5C 144.537,416.381 149.537,397.714 154,378.5C 162.307,358.218 171.974,338.552 183,319.5C 184.011,318.663 185.178,318.33 186.5,318.5C 186.854,316.459 186.854,314.626 186.5,313C 188.09,311.954 189.59,310.787 191,309.5C 195.653,299.524 201.319,290.191 208,281.5C 223.495,263.672 239.995,246.838 257.5,231C 270.524,220.636 283.524,210.303 296.5,200C 317.689,188.238 339.355,177.238 361.5,167C 374.53,163.158 387.53,159.158 400.5,155C 448.513,142.054 497.513,138.388 547.5,144C 554.343,145.096 561.01,146.763 567.5,149C 566.549,149.718 566.383,150.551 567,151.5C 569.184,149.129 571.35,149.296 573.5,152C 574.711,152.893 574.711,153.726 573.5,154.5C 571.544,153.452 569.544,152.952 567.5,153C 570.025,155.291 573.025,156.624 576.5,157C 578.612,157.906 579.445,159.406 579,161.5C 577.829,159.384 576.329,158.718 574.5,159.5C 570.348,157.442 566.348,157.442 562.5,159.5C 561.833,158.833 561.167,158.167 560.5,157.5C 557.888,157.929 556.388,158.929 556,160.5C 553.942,159.888 552.109,158.888 550.5,157.5C 548.622,157.623 546.789,157.623 545,157.5C 544.125,159.513 542.791,159.513 541,157.5C 535.339,158.275 529.672,158.609 524,158.5C 521.804,157.91 519.638,157.243 517.5,156.5C 513.88,156.881 510.38,156.881 507,156.5C 505.289,156.439 503.956,157.106 503,158.5C 501.333,157.833 499.667,157.167 498,156.5C 491.912,157.705 485.912,157.705 480,156.5C 474.236,157.663 468.403,158.663 462.5,159.5C 463,159.833 463.5,160.167 464,160.5C 471.654,160.206 479.654,159.539 488,158.5C 492.75,158.63 497.584,159.297 502.5,160.5C 510.815,159.425 519.149,159.592 527.5,161C 525.608,161.973 523.608,162.64 521.5,163C 532.097,164.143 542.597,165.643 553,167.5C 556.041,166.496 559.041,166.83 562,168.5C 562.873,168.265 563.707,167.931 564.5,167.5C 569.003,169.267 573.669,170.267 578.5,170.5C 578.491,172.308 578.991,173.975 580,175.5C 582.373,174.457 584.54,174.79 586.5,176.5C 583.911,177.127 581.411,177.127 579,176.5C 578.5,176.833 578,177.167 577.5,177.5C 579.012,178.862 580.512,179.196 582,178.5C 586.828,179.749 591.661,181.083 596.5,182.5C 598.529,181.371 598.863,181.871 597.5,184C 598.449,184.617 599.282,184.451 600,183.5C 603.427,185.129 606.927,186.629 610.5,188C 609.5,188.5 608.5,189 607.5,189.5C 604.724,187.87 601.724,187.203 598.5,187.5C 597.534,184.875 596.534,184.875 595.5,187.5C 595.957,188.298 596.624,188.631 597.5,188.5C 602.231,190.612 607.065,192.612 612,194.5C 612.333,194.167 612.667,193.833 613,193.5C 614.167,194.667 615.333,195.833 616.5,197C 615.833,197.167 615.167,197.333 614.5,197.5C 603.588,194.447 592.254,191.947 580.5,190C 580,189.5 579.5,189 579,188.5C 577.026,188.647 575.026,188.981 573,189.5C 569.147,188.042 565.147,187.042 561,186.5C 551.656,185.186 542.489,185.186 533.5,186.5C 532.522,186.023 531.689,185.357 531,184.5C 521.043,185.19 511.043,185.857 501,186.5C 500.228,186.355 499.561,186.022 499,185.5C 492.132,187.65 484.965,189.984 477.5,192.5C 474.714,192.802 471.881,192.802 469,192.5C 466.516,192.826 464.349,193.826 462.5,195.5C 459.498,194.489 456.498,194.656 453.5,196C 446.196,198.879 438.696,201.379 431,203.5C 429.219,203.261 427.386,202.928 425.5,202.5C 416.103,207.852 406.103,211.685 395.5,214C 366.469,227.337 339.135,243.671 313.5,263C 306.483,270.086 299.483,277.086 292.5,284C 291.207,284.49 289.873,284.657 288.5,284.5C 288.66,286.199 288.494,287.866 288,289.5C 265.27,314.911 245.604,342.578 229,372.5C 225.08,384.253 220.747,395.92 216,407.5C 209.901,427.33 205.901,447.33 204,467.5C 202.349,472.669 201.182,478.002 200.5,483.5C 200.778,533.416 209.945,582.082 228,629.5C 230.814,636.285 233.814,642.952 237,649.5C 244.151,662.467 251.818,675.133 260,687.5C 264.765,693.354 269.765,699.021 275,704.5C 277.215,707.596 278.881,710.929 280,714.5C 281.821,717.149 284.321,718.816 287.5,719.5C 288.145,720.732 288.311,722.065 288,723.5C 288.333,723.167 288.667,722.833 289,722.5C 290.378,724.213 292.045,725.547 294,726.5C 294.667,728.5 295.333,730.5 296,732.5C 296.308,731.692 296.808,731.025 297.5,730.5C 300.298,733.102 303.298,735.435 306.5,737.5C 308.742,739.702 310.242,742.035 311,744.5C 311.718,743.549 312.551,743.383 313.5,744C 325.858,753.573 338.858,762.239 352.5,770C 350.729,770.535 350.396,771.369 351.5,772.5C 352.293,772.069 353.127,771.735 354,771.5C 356.766,772.925 359.599,774.258 362.5,775.5C 361.833,776.167 361.167,776.833 360.5,777.5C 361.922,778.547 363.422,778.547 365,777.5C 366.03,777.836 366.53,778.503 366.5,779.5C 365.224,780.386 365.224,781.386 366.5,782.5C 367.298,782.043 367.631,781.376 367.5,780.5C 369.196,778.871 370.196,779.204 370.5,781.5C 373.755,781.014 376.422,782.014 378.5,784.5C 382.285,784.234 385.285,785.901 387.5,789.5C 388.086,789.291 388.586,788.957 389,788.5C 415.009,799.998 442.175,807.998 470.5,812.5C 473.52,812.018 476.52,811.685 479.5,811.5C 527.768,818.954 573.434,811.121 616.5,788C 628.044,782.491 636.544,773.991 642,762.5C 642.667,759.833 643.333,757.167 644,754.5C 643.426,699.886 659.76,651.219 693,608.5C 716.304,668.949 703.638,720.616 655,763.5C 650.906,768.368 647.906,773.701 646,779.5C 665.572,768.596 684.072,756.096 701.5,742C 712.442,732.064 722.275,721.23 731,709.5C 740.382,692.444 742.715,674.444 738,655.5C 733.731,642.027 729.065,628.694 724,615.5C 716.722,584.155 716.889,552.822 724.5,521.5C 725.002,520.479 725.668,520.312 726.5,521C 770.215,565.255 779.048,615.755 753,672.5C 751.38,678.894 750.047,685.227 749,691.5C 766.919,668.342 781.253,643.009 792,615.5C 798.372,598.354 799.039,581.02 794,563.5C 791.755,558.003 788.755,553.003 785,548.5C 756.561,522.643 737.561,490.976 728,453.5C 726.065,446.528 724.232,439.528 722.5,432.5C 722.556,431.263 723.056,430.263 724,429.5C 743.267,436.291 760.267,446.625 775,460.5C 798.453,489.941 808.453,523.607 805,561.5C 805.473,563.779 806.473,565.779 808,567.5C 810.43,559.351 812.097,551.018 813,542.5C 815.976,516.858 815.643,491.191 812,465.5C 810.188,454.035 805.688,443.869 798.5,435C 787.812,428.771 776.479,424.104 764.5,421C 754.717,416.861 745.717,411.528 737.5,405C 716.05,386.394 697.717,365.227 682.5,341.5C 713.402,337.902 740.736,346.402 764.5,367C 777.073,379.652 787.573,393.819 796,409.5C 798.306,411.806 800.64,414.14 803,416.5C 803.518,412.449 803.184,408.449 802,404.5C 796.175,387.027 789.175,370.027 781,353.5C 773.235,341.403 763.735,330.903 752.5,322C 750.167,321 747.833,320 745.5,319C 715.933,318.444 688.6,310.444 663.5,295C 647.145,283.822 631.145,272.156 615.5,260C 652.423,248.32 686.757,253.653 718.5,276C 733.555,286.718 747.055,299.218 759,313.5C 746.393,283.51 725.56,260.01 696.5,243C 676.561,233.702 658.227,222.035 641.5,208C 635.967,202.802 630.8,197.302 626,191.5C 613.074,174.652 599.908,157.985 586.5,141.5C 639.357,143.335 679.524,166.668 707,211.5C 714.333,225.5 721.667,239.5 729,253.5C 750.84,283.844 771.173,315.177 790,347.5C 790.198,343.404 789.531,339.404 788,335.5C 781.763,322.022 774.763,309.022 767,296.5C 751.462,268.473 745.796,238.473 750,206.5C 750.333,202.5 750.667,198.5 751,194.5C 751.414,194.043 751.914,193.709 752.5,193.5C 772.305,209.779 787.805,229.446 799,252.5C 805.839,269.544 808.505,287.211 807,305.5C 804.351,318.427 802.184,331.427 800.5,344.5C 801.157,354.289 802.657,363.956 805,373.5C 813.637,403.352 819.97,433.686 824,464.5C 825.068,457.218 825.568,449.885 825.5,442.5C 824.771,425.318 823.771,408.152 822.5,391C 823.097,370.111 827.263,349.944 835,330.5C 839.147,319.719 843.48,309.053 848,298.5C 872.027,337.077 876.36,377.744 861,420.5C 853.667,432.5 846.333,444.5 839,456.5C 833.009,468.129 829.342,480.462 828,493.5C 826.705,520.052 824.039,546.385 820,572.5C 822.861,568.112 825.194,563.446 827,558.5C 831.04,532.323 839.373,507.656 852,484.5C 866.005,463.824 882.838,445.657 902.5,430C 907.676,460.945 902.843,491.111 888,520.5C 881.688,531.486 873.855,541.319 864.5,550C 854.5,557.333 844.5,564.667 834.5,572C 829.633,576.532 825.133,581.366 821,586.5C 806.106,616.959 790.773,646.959 775,676.5C 781.26,672.244 786.927,667.244 792,661.5C 802.398,640.437 815.898,621.603 832.5,605C 854.58,588.292 878.914,575.792 905.5,567.5C 896.486,605.065 876.82,635.565 846.5,659C 841.423,662.401 836.089,665.401 830.5,668C 816.229,672.868 801.895,677.535 787.5,682C 777.487,687.003 768.154,693.003 759.5,700C 741.494,717.34 724.161,735.34 707.5,754C 711.381,753.573 715.047,752.24 718.5,750C 727.013,743.909 735.346,737.576 743.5,731C 778.415,705.938 817.081,696.604 859.5,703C 845.383,720.786 829.05,736.12 810.5,749C 782.913,765.539 753.247,770.706 721.5,764.5C 707.432,764.547 694.099,767.714 681.5,774C 663.044,782.728 644.71,791.728 626.5,801C 621.9,803.215 617.734,806.048 614,809.5C 613.333,810.167 613.333,810.833 614,811.5C 631.669,805.611 649.503,800.111 667.5,795C 691.566,790.179 715.566,790.512 739.5,796C 751.655,798.664 763.655,801.831 775.5,805.5C 775.439,807.592 774.439,809.092 772.5,810C 752.894,823.966 731.227,833.299 707.5,838C 692.44,840.215 677.44,839.881 662.5,837C 649.197,833.182 636.197,828.515 623.5,823C 619.07,821.781 614.57,820.947 610,820.5C 601.528,821.985 593.361,824.485 585.5,828C 584.833,829.333 584.167,830.667 583.5,832C 561.973,845.42 538.64,854.42 513.5,859C 509.909,859.789 506.409,859.622 503,858.5C 502.667,859.167 502.333,859.833 502,860.5C 500.989,859.663 499.822,859.33 498.5,859.5C 498.5,860.5 498.5,861.5 498.5,862.5 Z M 543.5,151.5 C 542.194,151.879 540.861,152.212 539.5,152.5C 538.692,152.192 538.025,151.692 537.5,151C 539.712,150.211 541.712,150.378 543.5,151.5 Z M 543.5,151.5 C 545.452,150.592 547.452,150.759 549.5,152C 549,152.5 548.5,153 548,153.5C 546.378,152.901 544.878,152.234 543.5,151.5 Z M 556.5,151.5 C 557.376,151.369 558.043,151.702 558.5,152.5C 556.192,153.873 555.525,153.54 556.5,151.5 Z M 537.5,155.5 C 540.001,155.511 540.168,156.178 538,157.5C 537.536,156.906 537.369,156.239 537.5,155.5 Z M 511.5,160.5 C 514.285,161.017 516.952,161.85 519.5,163C 516.095,163.968 513.429,163.135 511.5,160.5 Z M 571.5,174.5 C 576.809,178.189 576.476,178.855 570.5,176.5C 570.863,175.817 571.196,175.15 571.5,174.5 Z M 598.5,187.5 C 597.833,187.5 597.5,187.833 597.5,188.5C 596.624,188.631 595.957,188.298 595.5,187.5C 596.534,184.875 597.534,184.875 598.5,187.5 Z M 314.5,202.5 C 316.27,201.236 317.937,199.736 319.5,198C 324.978,196.067 330.145,193.567 335,190.5C 335.617,191.449 335.451,192.282 334.5,193C 327.833,196.287 321.166,199.454 314.5,202.5 Z M 306.5,207.5 C 308.337,207.639 308.67,208.306 307.5,209.5C 306.702,209.043 306.369,208.376 306.5,207.5 Z M 299.5,211.5 C 300.552,211.351 301.552,211.517 302.5,212C 299.308,214.692 295.975,217.192 292.5,219.5C 292.167,219.167 291.833,218.833 291.5,218.5C 294.239,216.149 296.905,213.816 299.5,211.5 Z M 363.5,218.5 C 364.475,216.487 366.142,215.154 368.5,214.5C 368.833,214.833 369.167,215.167 369.5,215.5C 367.757,217.038 365.757,218.038 363.5,218.5 Z M 370.5,214.5 C 373.797,214.329 374.131,214.995 371.5,216.5C 370.702,216.043 370.369,215.376 370.5,214.5 Z M 363.5,218.5 C 363.361,220.337 362.694,220.67 361.5,219.5C 361.957,218.702 362.624,218.369 363.5,218.5 Z M 287.5,220.5 C 288.239,220.369 288.906,220.536 289.5,221C 288.333,222.167 287.167,223.333 286,224.5C 285.516,222.807 286.016,221.473 287.5,220.5 Z M 354.5,223.5 C 355.774,224.189 355.774,225.023 354.5,226C 351.705,227.3 349.039,228.8 346.5,230.5C 346.167,230.167 345.833,229.833 345.5,229.5C 348.427,227.216 351.427,225.216 354.5,223.5 Z M 342.5,230.5 C 343.239,230.369 343.906,230.536 344.5,231C 342.546,232.84 340.546,233.673 338.5,233.5C 339.901,232.479 341.235,231.479 342.5,230.5 Z M 328.5,239.5 C 329.773,240.077 329.773,240.743 328.5,241.5C 327.537,241.03 327.537,240.363 328.5,239.5 Z M 253.5,252.5 C 253.489,254.686 252.489,255.519 250.5,255C 251.373,253.955 252.373,253.122 253.5,252.5 Z M 243.5,262.5 C 244.713,259.775 246.546,257.441 249,255.5C 248.228,258.464 246.395,260.798 243.5,262.5 Z M 243.5,262.5 C 242.198,265.975 239.865,268.142 236.5,269C 238.518,266.354 240.851,264.187 243.5,262.5 Z M 231.5,275.5 C 232.055,273.271 233.389,271.605 235.5,270.5C 236.521,271.002 236.688,271.668 236,272.5C 234.6,273.748 233.1,274.748 231.5,275.5 Z M 231.5,275.5 C 229.287,280.052 226.287,284.052 222.5,287.5C 221.479,286.998 221.312,286.332 222,285.5C 225.061,281.942 228.228,278.609 231.5,275.5 Z M 208.5,307.5 C 208.826,304.999 210.159,303.832 212.5,304C 211.295,305.376 209.962,306.542 208.5,307.5 Z M 208.5,307.5 C 204.384,315.72 199.717,323.72 194.5,331.5C 197.523,322.82 202.19,314.82 208.5,307.5 Z M 191.5,332.5 C 193.656,332.872 193.656,333.872 191.5,335.5C 190.438,334.575 190.438,333.575 191.5,332.5 Z M 177.5,334.5 C 178.289,334.783 178.956,335.283 179.5,336C 178.184,336.528 177.517,336.028 177.5,334.5 Z M 173.5,368.5 C 174.573,369.251 174.74,370.251 174,371.5C 172.272,370.648 172.105,369.648 173.5,368.5 Z M 170.5,372.5 C 171.376,372.369 172.043,372.702 172.5,373.5C 170.666,378.839 168.832,384.172 167,389.5C 166.282,390.451 165.449,390.617 164.5,390C 166.583,384.154 168.583,378.321 170.5,372.5 Z M 163.5,393.5 C 164.497,393.47 165.164,393.97 165.5,395C 164.514,399.804 162.847,404.304 160.5,408.5C 160.167,408.167 159.833,407.833 159.5,407.5C 161.041,402.879 162.374,398.212 163.5,393.5 Z M 159.5,410.5 C 160.773,411.077 160.773,411.743 159.5,412.5C 158.537,412.03 158.537,411.363 159.5,410.5 Z M 158.5,413.5 C 160.688,414.536 160.688,416.036 158.5,418C 159.983,420.573 159.483,422.74 157,424.5C 156.984,420.777 157.484,417.11 158.5,413.5 Z M 149.5,451.5 C 150.773,452.077 150.773,452.743 149.5,453.5C 148.537,453.03 148.537,452.363 149.5,451.5 Z M 148.5,474.5 C 147.334,472.834 147.334,471.167 148.5,469.5C 149.788,471.299 149.788,472.965 148.5,474.5 Z M 148.5,474.5 C 149.087,475.767 149.087,476.767 148.5,477.5C 147.224,476.386 147.224,475.386 148.5,474.5 Z M 157.5,503.5 C 159.847,505.03 160.014,507.03 158,509.5C 157.505,507.527 157.338,505.527 157.5,503.5 Z M 146.5,504.5 C 147.586,504.62 148.253,505.287 148.5,506.5C 148.167,507.167 147.833,507.833 147.5,508.5C 146.571,507.311 146.238,505.978 146.5,504.5 Z M 146.5,509.5 C 148.225,509.843 148.725,510.843 148,512.5C 146.961,511.756 146.461,510.756 146.5,509.5 Z M 285.5,725.5 C 286.077,724.227 286.743,724.227 287.5,725.5C 287.03,726.463 286.363,726.463 285.5,725.5 Z M 352.5,773.5 C 354.117,774.038 355.784,774.371 357.5,774.5C 357.719,775.675 357.386,776.675 356.5,777.5C 354.8,776.39 353.466,775.057 352.5,773.5 Z M 366.5,779.5 C 366.5,780.167 366.833,780.5 367.5,780.5C 367.631,781.376 367.298,782.043 366.5,782.5C 365.224,781.386 365.224,780.386 366.5,779.5 Z M 370.5,781.5 C 371.649,786.023 370.983,786.357 368.5,782.5C 368.957,781.702 369.624,781.369 370.5,781.5 Z M 578.5,822.5 C 579.707,823.189 581.041,823.355 582.5,823C 580.424,824.693 578.091,825.36 575.5,825C 576.571,824.148 577.571,823.315 578.5,822.5 Z M 334.5,829.5 C 336.503,828.468 338.503,828.802 340.5,830.5C 340.192,831.308 339.692,831.975 339,832.5C 337.729,831.117 336.229,830.117 334.5,829.5 Z M 343.5,833.5 C 344.077,832.227 344.743,832.227 345.5,833.5C 345.03,834.463 344.363,834.463 343.5,833.5 Z M 542.5,836.5 C 543.675,836.281 544.675,836.614 545.5,837.5C 542.721,839.297 539.721,839.797 536.5,839C 538.611,838.155 540.611,837.322 542.5,836.5 Z M 531.5,838.5 C 532.978,838.238 534.311,838.571 535.5,839.5C 532.547,841.873 529.214,842.707 525.5,842C 527.693,841.743 529.693,840.576 531.5,838.5 Z M 386.5,846.5 C 388.346,846.222 389.68,846.889 390.5,848.5C 388.167,849.941 386.834,849.275 386.5,846.5 Z M 392.5,849.5 C 396.574,849.701 400.574,850.368 404.5,851.5C 401.361,852.603 398.194,852.603 395,851.5C 391.688,854.459 390.854,853.792 392.5,849.5 Z M 393.5,853.5 C 394.721,852.535 396.054,852.702 397.5,854C 396.072,854.579 394.738,854.412 393.5,853.5 Z M 407.5,852.5 C 409.355,852.272 410.188,852.939 410,854.5C 409.333,853.167 408.667,853.167 408,854.5C 407.536,853.906 407.369,853.239 407.5,852.5 Z M 423.5,857.5 C 424.773,858.077 424.773,858.743 423.5,859.5C 422.537,859.03 422.537,858.363 423.5,857.5 Z M 426.5,858.5 C 428.337,858.639 428.67,859.306 427.5,860.5C 426.702,860.043 426.369,859.376 426.5,858.5 Z M 431.5,858.5 C 436.021,858.326 436.355,858.993 432.5,860.5C 431.702,860.043 431.369,859.376 431.5,858.5 Z M 436.5,858.5 C 439.392,858.721 442.059,859.554 444.5,861C 442.674,861.292 440.841,861.125 439,860.5C 437.624,860.316 436.791,859.649 436.5,858.5 Z M 463.5,861.5 C 459.89,862.364 459.723,861.698 463,859.5C 463.464,860.094 463.631,860.761 463.5,861.5 Z M 457.5,860.5 C 458.376,860.369 459.043,860.702 459.5,861.5C 457.192,862.873 456.525,862.54 457.5,860.5 Z M 463.5,861.5 C 472.272,861.742 480.939,861.409 489.5,860.5C 491.915,860.719 492.915,862.052 492.5,864.5C 489.933,864.145 487.433,863.479 485,862.5C 478.365,862.695 472.032,863.028 466,863.5C 464.699,863.361 463.866,862.695 463.5,861.5 Z M 498.5,862.5 C 497.234,864.498 495.568,864.498 493.5,862.5C 494.242,861.713 495.075,861.047 496,860.5C 496.708,861.381 497.542,862.047 498.5,862.5 Z M 519.5,861.5 C 521.337,861.639 521.67,862.306 520.5,863.5C 519.702,863.043 519.369,862.376 519.5,861.5 Z M 498.5,864.5 C 500.975,864.747 500.975,865.413 498.5,866.5C 497.537,866.03 497.537,865.363 498.5,864.5 Z"/></g>
<g><path style="opacity:1" fill="#000000" d="M 586.5,176.5 C 587.239,176.369 587.906,176.536 588.5,177C 587.563,177.692 586.897,177.525 586.5,176.5 Z"/></g>
</svg>
